<?xml version="1.0" encoding="utf-8"?>
<!-- Generator: Adobe Illustrator 25.2.1, SVG Export Plug-In . SVG Version: 6.00 Build 0)  -->
<svg version="1.1" id="Camada_1" xmlns="http://www.w3.org/2000/svg" xmlns:xlink="http://www.w3.org/1999/xlink" x="0px" y="0px"
	 viewBox="0 0 64 64" style="enable-background:new 0 0 64 64;" xml:space="preserve">
<style type="text/css">
	.st0{fill-rule:evenodd;clip-rule:evenodd;fill:#FFFFFF;}
	.st1{fill-rule:evenodd;clip-rule:evenodd;fill:#F9BA15;}
	.st2{fill:#F9BA15;}
</style>
<path class="st2" d="M29.9,19.2c-5.9,0-10.7,4.8-10.7,10.7S24,40.6,29.9,40.6c5.9,0,10.7-4.8,10.7-10.7C40.6,24,35.8,19.2,29.9,19.2
	z M34.1,32H32v2.1c0,1.2-1,2.1-2.1,2.1c-1.2,0-2.1-1-2.1-2.1V32h-2.1c-1.2,0-2.1-1-2.1-2.1c0-1.2,1-2.1,2.1-2.1h2.1v-2.1
	c0-1.2,1-2.1,2.1-2.1c1.2,0,2.1,1,2.1,2.1v2.1h2.1c1.2,0,2.1,1,2.1,2.1C36.3,31,35.3,32,34.1,32z M32,0.9C14.8,0.9,0.9,14.8,0.9,32
	c0,17.2,13.9,31.1,31.1,31.1S63.1,49.2,63.1,32C63.1,14.8,49.2,0.9,32,0.9z M48.6,48.6c-0.8,0.8-2.2,0.8-3,0l-6.7-6.7
	c-5.3,4-12.7,4-18,0c-6.7-5-8-14.4-3-21.1c5-6.7,14.4-8,21.1-3c6.7,5,8,14.4,3,21.1l6.7,6.7v0C49.4,46.4,49.4,47.7,48.6,48.6z"/>
</svg>
